<svg xmlns="http://www.w3.org/2000/svg" width="32" height="32" version="1.1" id="Capa_1" viewBox="0 0 19.877 19.877">
              <defs>
                <linearGradient id="gradient" x1="0%" y1="0%" x2="100%" y2="0%">
                  <stop offset="0%" style="stop-color:#9333EA" /> <!-- purple-600 -->
                  <stop offset="50%" style="stop-color:#3B82F6" /> <!-- blue-500 -->
                  <stop offset="100%" style="stop-color:#A78BFA" /> <!-- purple-400 -->
                </linearGradient>
              </defs>
              <g fill="url(#gradient)">
                <g> 
                  <path d="M9.938,3.403c-3.604,0-6.537,2.933-6.537,6.537s2.933,6.537,6.537,6.537s6.538-2.933,6.538-6.537    C16.476,6.336,13.542,3.403,9.938,3.403z M9.938,14.892c-2.73,0-4.952-2.222-4.952-4.952s2.222-4.952,4.952-4.952    c2.731,0,4.953,2.222,4.953,4.952S12.669,14.892,9.938,14.892z"/>
                  <path d="M9.938,0.001C4.458,0.001,0,4.459,0,9.938s4.458,9.938,9.938,9.938    c5.481,0,9.939-4.458,9.939-9.938C19.877,4.459,15.419,0.001,9.938,0.001z M9.938,18.292c-4.606,0-8.353-3.746-8.353-8.353    c0-4.606,3.747-8.353,8.353-8.353s8.353,3.747,8.353,8.353C18.291,14.545,14.544,18.292,9.938,18.292z"/>
                </g>
              </g>
            </svg>